<?xml version="1.0" encoding="utf-8"?>
<svg id="svg8" version="1.1" viewBox="0 0 67.210915 31.1404" height="31.1404mm" width="67.210915mm" xmlns="http://www.w3.org/2000/svg">
  <g transform="translate(-82.992966,-134.06934)" id="layer1">
    <g id="g905">
      <path id="path847" style="stroke-width: 1.965; stroke-linecap: round; stroke-linejoin: round;" d="m 117.10984,134.06934 c -3.25488,0 -6.70089,4.88466 -7.21824,9.33052 -15.392575,0.19271 -26.796798,2.68144 -26.897976,6.10643 -0.08173,2.76645 7.461071,5.37165 18.498716,6.83267 l -0.9517,0.62612 a 3.0525925,1.8596254 86.447085 0 0 -0.947823,-0.34583 3.0525925,1.8596254 86.447085 0 0 -1.666894,3.1619 3.0525925,1.8596254 86.447085 0 0 2.04529,2.93147 3.0525925,1.8596254 86.447085 0 0 1.673517,-3.02313 l 3.15435,-2.95741 c 3.6086,0.37987 7.51249,0.64167 11.59114,0.75551 4.08492,0.11399 8.00336,0.0699 11.63312,-0.10878 l 3.25078,4.30205 c -8.5e-4,0.0389 -0.001,0.0778 -0.001,0.11668 2e-5,1.88458 0.92299,3.4123 2.06148,3.4122 1.13843,-7e-5 2.06129,-1.52773 2.06131,-3.4122 4e-5,-1.88452 -0.92284,-3.4123 -2.06131,-3.41237 -0.32657,6e-5 -1.24497,0.0934 -1.53567,0.33974 l -0.62593,-1.54063 c 11.19179,-0.83416 18.94812,-3.0225 19.03024,-5.8022 0.0987,-3.34322 -11.26564,-6.41404 -26.24351,-7.54051 -0.67134,-4.47548 -3.73106,-9.77223 -6.8496,-9.77223 z"/>
    </g>
  </g>
</svg>